HIERARCHY
ROOT Model_Hips
{
	OFFSET 0.000000 96.915077 0.000000
	CHANNELS 6 Xposition Yposition Zposition Xrotation Yrotation Zrotation
	JOINT Model_Spine
	{
		OFFSET 0.000000 11.137703 -1.289900
		CHANNELS 3 Xrotation Yrotation Zrotation
		JOINT Model_Spine1
		{
			OFFSET 0.000000 12.993942 -1.504922
			CHANNELS 3 Xrotation Yrotation Zrotation
			JOINT Model_Spine2
			{
				OFFSET 0.000000 14.850220 -1.719911
				CHANNELS 3 Xrotation Yrotation Zrotation
				JOINT Model_Neck
				{
					OFFSET 0.000000 16.706543 -1.934903
					CHANNELS 3 Xrotation Yrotation Zrotation
					JOINT Model_Head
					{
						OFFSET 0.000000 10.471298 2.002100
						CHANNELS 3 Xrotation Yrotation Zrotation
						JOINT Model_HeadTop_End
						{
							OFFSET 0.000000 20.842606 3.985100
							CHANNELS 3 Xrotation Yrotation Zrotation
							End Site
							{
								OFFSET 0.000000 21.220154 0.000000
							}
						}
					}
				}
				JOINT Model_LeftShoulder
				{
					OFFSET 7.008500 14.768600 -1.919946
					CHANNELS 3 Xrotation Yrotation Zrotation
					JOINT Model_LeftArm
					{
						OFFSET 14.126271 -3.718048 0.029937
						CHANNELS 3 Xrotation Yrotation Zrotation
						JOINT Model_LeftForeArm
						{
							OFFSET 28.282801 0.000000 0.000000
							CHANNELS 3 Xrotation Yrotation Zrotation
							JOINT Model_LeftHand
							{
								OFFSET 26.204689 0.000000 0.000000
								CHANNELS 3 Xrotation Yrotation Zrotation
								End Site
								{
									OFFSET 26.204704 0.000000 0.000000
								}
							}
						}
					}
				}
				JOINT Model_RightShoulder
				{
					OFFSET -7.008500 14.768555 -1.949840
					CHANNELS 3 Xrotation Yrotation Zrotation
					JOINT Model_RightArm
					{
						OFFSET -14.126281 -3.718018 -0.029932
						CHANNELS 3 Xrotation Yrotation Zrotation
						JOINT Model_RightForeArm
						{
							OFFSET -28.283798 0.000000 -0.000001
							CHANNELS 3 Xrotation Yrotation Zrotation
							JOINT Model_RightHand
							{
								OFFSET -26.204193 0.000000 -0.000001
								CHANNELS 3 Xrotation Yrotation Zrotation
								End Site
								{
									OFFSET -26.204208 0.000000 -0.000001
								}
							}
						}
					}
				}
			}
		}
	}
	JOINT Model_LeftUpLeg
	{
		OFFSET 8.327700 -6.193199 -0.402800
		CHANNELS 3 Xrotation Yrotation Zrotation
		JOINT Model_LeftLeg
		{
			OFFSET 0.735802 -42.108742 -0.610721
			CHANNELS 3 Xrotation Yrotation Zrotation
			JOINT Model_LeftFoot
			{
				OFFSET -0.735806 -36.833748 -0.172876
				CHANNELS 3 Xrotation Yrotation Zrotation
				JOINT Model_LeftToeBase
				{
					OFFSET -0.565857 -11.977769 16.297714
					CHANNELS 3 Xrotation Yrotation Zrotation
					JOINT Model_LeftToe_End
					{
						OFFSET -0.111712 -0.312793 7.857784
						CHANNELS 3 Xrotation Yrotation Zrotation
						End Site
						{
							OFFSET -0.111712 -0.312793 7.857784
						}
					}
				}
			}
		}
	}
	JOINT Model_RightUpLeg
	{
		OFFSET -8.327700 -6.193199 -0.516500
		CHANNELS 3 Xrotation Yrotation Zrotation
		JOINT Model_RightLeg
		{
			OFFSET -0.735785 -42.108738 -0.434061
			CHANNELS 3 Xrotation Yrotation Zrotation
			JOINT Model_RightFoot
			{
				OFFSET 0.735776 -36.833748 -0.021630
				CHANNELS 3 Xrotation Yrotation Zrotation
				JOINT Model_RightToeBase
				{
					OFFSET 0.565817 -11.977745 15.903093
					CHANNELS 3 Xrotation Yrotation Zrotation
					JOINT Model_RightToe_End
					{
						OFFSET 0.111702 -0.312791 7.811342
						CHANNELS 3 Xrotation Yrotation Zrotation
						End Site
						{
							OFFSET 0.111702 -0.312791 7.811342
						}
					}
				}
			}
		}
	}
}
MOTION
Frames: 14
Frame Time: 0.016667
-65.878319 83.970695 -72.595184 0.099109 27.496612 13.121176 11.325006 -9.296512 -2.541344 0.876648 -2.383876 -0.197077 0.886588 -2.378345 -0.176484 0.459268 -5.174281 -0.680362 0.490963 -5.181233 -0.594942 0.000002 -0.000000 0.000000 0.108577 -10.534373 -16.779627 11.640698 10.819266 -49.109979 -0.000058 -80.741640 -0.000031 0.000001 0.000001 -0.000002 0.856741 -1.009328 17.176886 20.774913 -2.309698 59.731657 -0.000035 50.264551 0.000032 -0.000002 0.000001 0.000000 -14.330017 1.895722 -4.196426 60.586565 3.412093 4.817232 -38.860467 6.942567 -7.006835 -15.959369 -0.000009 -0.000008 -0.000001 0.000000 -0.000001 -49.213620 -0.240402 -0.751577 86.979304 -4.732247 -1.341580 -4.143143 -1.413188 -0.332291 -24.686411 3.115609 -8.433406 -0.000001 0.000001 -0.000000 
-69.393906 83.301712 -76.171959 0.834370 28.314373 13.495140 11.191218 -8.427188 -3.169891 0.894320 -2.119785 -0.292274 0.904546 -2.113235 -0.274305 0.306273 -5.367896 -0.616967 0.341889 -5.374609 -0.528262 0.000002 -0.000001 -0.000000 0.084531 -10.501634 -17.098919 13.563659 13.039718 -51.954134 -0.000022 -74.382734 -0.000006 -0.000000 0.000001 -0.000001 0.856455 -0.956422 17.316823 14.912075 0.124296 57.505405 0.000008 48.537647 -0.000017 -0.000001 0.000001 0.000000 -19.455268 0.508249 -4.968999 61.909094 5.573766 5.316476 -39.072008 7.202021 -7.280851 -13.407911 -0.000019 -0.000009 -0.000001 -0.000003 0.000001 -48.301571 1.371983 -3.433093 92.709019 -3.668500 -1.670860 -4.212160 -1.449129 -0.387786 -29.789508 3.126085 -6.267554 0.000000 -0.000000 -0.000000 
-72.948669 83.021019 -79.441322 1.542600 28.270983 13.337014 11.013234 -7.183137 -3.343564 0.937399 -1.782864 -0.313171 0.945926 -1.777008 -0.297893 0.235484 -5.529430 -0.599040 0.271619 -5.536133 -0.510500 0.000001 -0.000000 0.000000 0.069147 -10.309192 -17.449501 16.860167 15.587692 -54.616361 0.000030 -70.155858 0.000033 -0.000003 0.000001 -0.000000 0.796725 -0.203194 16.864516 10.182231 1.944101 55.130261 0.000018 49.199973 -0.000028 -0.000001 0.000001 0.000000 -23.920683 -0.337715 -4.385593 62.265077 6.405622 5.559456 -36.980464 7.582477 -8.432277 -11.715816 -0.000003 -0.000002 0.000001 0.000001 0.000002 -45.848622 3.056389 -5.131752 96.653331 -1.850539 -1.926504 -4.766710 -1.541434 -0.292643 -30.115192 2.779339 -5.329139 -0.000000 0.000001 0.000000 
-76.592361 83.142387 -82.434776 1.811437 27.345834 13.062592 11.155748 -5.587914 -3.207177 1.014506 -1.364902 -0.304804 1.020781 -1.360236 -0.293102 0.258776 -5.672816 -0.590124 0.293514 -5.679301 -0.500446 0.000001 0.000000 -0.000000 0.098171 -9.841060 -17.485301 21.852772 17.651997 -57.210610 -0.000023 -68.254518 -0.000014 -0.000000 -0.000002 -0.000004 0.706620 1.117941 15.902811 6.549382 3.249829 52.685385 0.000001 51.964769 -0.000022 0.000001 -0.000001 0.000001 -27.051507 -0.308228 -2.228697 61.382391 5.389956 5.342278 -33.129283 7.817158 -9.895722 -10.799583 0.000006 -0.000003 -0.000001 -0.000002 -0.000001 -41.876494 4.848283 -6.120464 98.767254 0.254548 -2.243773 -5.339750 -1.672952 0.201537 -27.161133 2.464002 -5.402355 0.000000 -0.000002 0.000001 
-80.353104 83.630104 -85.222488 1.670426 25.900743 13.043252 11.573866 -3.848946 -3.046837 1.101143 -0.906688 -0.309479 1.105748 -0.902839 -0.302698 0.374677 -5.804000 -0.583938 0.407975 -5.810017 -0.490430 0.000003 -0.000000 -0.000000 0.200566 -8.914329 -16.930079 28.216288 18.320951 -59.728522 -0.000007 -68.358896 0.000005 -0.000001 -0.000000 0.000000 0.635231 2.568581 14.551417 3.920009 4.481082 50.216452 -0.000008 56.145367 -0.000006 0.000001 0.000002 -0.000002 -28.668240 0.736856 0.994539 58.674638 2.897282 4.597972 -28.043037 7.765043 -11.220455 -10.219712 0.000003 0.000001 0.000001 0.000001 0.000001 -36.760225 6.662632 -6.945672 99.157012 1.926191 -2.739749 -5.809974 -1.778402 0.446693 -21.812598 1.750928 -5.163410 -0.000001 0.000003 -0.000002 
-84.240135 84.444443 -87.844193 1.465901 24.496289 13.313745 11.888313 -2.175548 -3.028696 1.152779 -0.458959 -0.326402 1.156477 -0.455993 -0.325368 0.579224 -5.919039 -0.597230 0.612346 -5.924297 -0.499598 -0.000001 -0.000001 -0.000001 0.351479 -7.630184 -15.787269 35.111868 17.267326 -61.811040 0.000022 -69.638307 0.000026 0.000000 -0.000000 0.000001 0.609465 3.724001 13.036886 2.227295 5.805179 47.609854 0.000018 61.263901 -0.000006 0.000004 0.000001 0.000002 -29.040325 2.596779 4.491104 53.541467 -0.267644 3.461957 -21.803810 7.380816 -12.398246 -9.598183 -0.000005 -0.000006 -0.000000 -0.000004 0.000000 -31.077576 8.192919 -8.042777 97.841879 2.764548 -3.460224 -6.044800 -1.829124 0.288902 -15.235925 0.810847 -3.879760 -0.000001 -0.000001 0.000002 
-88.254532 85.483330 -90.320145 1.427652 23.633114 13.692665 11.817139 -0.670341 -3.110312 1.145531 -0.051941 -0.324116 1.149094 -0.050827 -0.328412 0.842855 -6.017130 -0.626619 0.878127 -6.021056 -0.526841 -0.000002 0.000001 -0.000001 0.485929 -6.529915 -14.332626 41.799491 15.427309 -63.278124 -0.000038 -71.587582 -0.000041 -0.000001 -0.000001 0.000002 0.619283 4.323482 11.688143 1.373011 6.957897 44.632855 -0.000007 67.133875 0.000032 0.000002 -0.000000 0.000003 -28.578606 4.811098 7.587766 45.770856 -3.290595 2.168451 -14.074097 6.604215 -13.609160 -8.584672 0.000019 0.000012 0.000001 -0.000002 -0.000001 -25.380930 8.982830 -9.433161 94.984517 2.981904 -4.377509 -6.257100 -1.839887 -0.075751 -9.292437 0.240964 -2.206879 -0.000003 0.000001 -0.000000 
-92.259483 86.316399 -92.707718 1.507032 23.607794 14.010236 11.292100 0.564562 -3.040250 1.098822 0.274824 -0.286864 1.103244 0.273668 -0.295080 1.119737 -6.095901 -0.653436 1.156847 -6.097963 -0.555673 -0.000000 0.000000 0.000000 0.571081 -6.142486 -12.907961 48.537947 14.568519 -64.757925 -0.000000 -74.935160 0.000022 -0.000002 0.000000 0.000002 0.636236 4.273830 10.826770 1.330038 7.291512 40.933269 -0.000041 74.425047 0.000064 -0.000001 0.000001 -0.000000 -28.089588 6.779594 9.925529 36.651451 -5.560060 0.928478 -4.992606 5.411865 -14.665685 -6.757522 -0.000019 -0.000002 0.000000 -0.000003 0.000000 -20.079568 8.827813 -10.902684 91.457640 3.024691 -5.397274 -7.339720 -1.817413 -0.462634 -5.700507 0.057130 -0.963029 -0.000004 0.000000 0.000002 
-96.266212 87.069115 -94.992615 1.630972 24.499851 14.176053 10.446945 1.265529 -2.721218 1.039166 0.448992 -0.228657 1.045008 0.446419 -0.238783 1.347812 -6.140287 -0.640422 1.384194 -6.140337 -0.549385 -0.000002 0.000000 0.000000 0.622865 -6.408645 -11.753159 54.561310 15.233016 -66.719760 -0.000013 -78.444101 0.000008 -0.000001 -0.000000 0.000003 0.642227 3.628508 10.671039 1.406794 7.263744 36.871393 0.000066 81.790457 -0.000067 -0.000003 0.000000 -0.000001 -26.805602 8.579872 11.131417 24.710474 -6.464731 0.155435 6.532219 3.564017 -15.303493 -4.134236 0.000025 0.000012 0.000000 0.000002 0.000000 -15.238502 7.699264 -12.132552 87.095451 2.873175 -6.358937 -9.039997 -1.746906 -0.869491 -5.252478 -0.000391 0.001572 -0.000002 -0.000002 0.000001 
-99.941193 87.094460 -97.221771 1.948466 26.171451 14.053028 8.713967 1.294495 -1.779649 1.287834 0.396082 -0.349945 1.296857 0.390985 -0.354513 1.487047 -6.157697 -0.557253 1.517871 -6.156456 -0.477958 -0.000000 0.000001 -0.000000 0.660853 -6.850298 -10.960625 60.626972 17.641745 -69.529946 0.000035 -83.087025 0.000066 -0.000001 -0.000000 0.000001 0.643616 2.566529 11.296616 1.101525 6.764429 32.697697 -0.004531 89.935218 0.003775 0.000002 0.000000 0.000002 -28.090406 9.035405 11.795931 18.702501 -5.698964 -0.090383 13.110971 2.523359 -14.902723 -1.885167 -0.000004 -0.000002 -0.000000 -0.000001 -0.000001 -11.108288 6.197504 -12.981273 82.951725 2.129726 -7.090984 -11.493566 -1.642293 -1.111122 -8.763037 -0.199800 1.475375 -0.000002 -0.000002 0.000002 
-103.898560 87.230850 -99.504372 2.739914 28.310178 13.489636 6.943488 0.680326 -0.909743 1.423996 0.187107 -0.434385 1.433234 0.183812 -0.435130 1.511628 -6.196346 -0.377555 1.532506 -6.195141 -0.313053 0.000002 0.000001 -0.000000 0.686648 -7.189420 -10.535779 64.316019 20.295533 -72.345842 0.000035 -85.748196 0.000110 -0.000003 0.000000 -0.000001 0.661836 1.341857 12.592772 0.514373 6.850696 29.646518 -0.000117 96.282315 0.000077 -0.000000 0.000001 0.000002 -31.341095 8.238263 12.360538 18.647837 -2.806259 0.101916 12.344758 2.359595 -14.096758 -1.363996 0.000003 -0.000002 0.000000 0.000001 -0.000001 -8.180711 4.539600 -12.909041 77.748569 0.553704 -7.498663 -12.054074 -1.476594 -1.841713 -17.986315 -1.229097 4.020665 -0.000002 -0.000000 0.000002 
-108.311157 87.447113 -101.959045 4.072220 30.463494 12.466921 5.444440 -0.169891 -0.291469 1.387191 -0.066722 -0.480599 1.395008 -0.065846 -0.480737 1.413352 -6.289430 -0.134425 1.423018 -6.289429 -0.084839 -0.000001 -0.000001 -0.000000 0.691511 -7.461535 -10.515397 65.008231 22.823306 -74.356028 -0.000111 -86.472094 -0.000019 0.000001 0.000000 0.000000 0.706812 0.245461 14.197688 0.630658 7.328224 28.235071 0.000005 100.565212 -0.000034 -0.000003 0.000001 0.000001 -33.851551 7.157889 12.530714 18.807496 -0.157681 0.836332 11.065361 2.881609 -14.131985 -2.404029 0.000003 -0.000007 0.000001 -0.000000 0.000000 -6.732745 3.159855 -11.874728 71.913013 -1.339268 -7.655754 -10.542649 -1.233909 -3.542981 -31.528734 -3.437543 6.557518 0.000002 -0.000001 0.000001 
-113.126213 87.633461 -104.581161 5.592234 32.188376 11.329756 4.505831 -0.961197 -0.015533 1.228530 -0.287815 -0.483859 1.234996 -0.282991 -0.484806 1.225629 -6.399193 0.072283 1.226516 -6.400826 0.109292 0.000000 0.000001 0.000001 0.670746 -7.604150 -10.920918 62.793897 24.966633 -74.955316 0.000069 -85.754412 0.000134 -0.000000 -0.000000 0.000001 0.760032 -0.466004 15.665326 2.269703 7.935544 28.270781 0.000020 102.412369 -0.000029 0.000004 0.000001 0.000001 -35.106623 5.950477 12.313940 19.000666 1.685677 2.009082 11.360494 3.539498 -14.207567 -3.647656 0.000000 -0.000000 0.000000 -0.000000 -0.000001 -6.477403 2.180024 -10.348012 66.176658 -2.676067 -7.704515 -8.864255 -0.992983 -5.634490 -45.288939 -4.601224 6.837129 -0.000001 0.000004 -0.000000 
-118.355698 88.030243 -107.269737 6.792646 33.228184 10.597410 4.622898 -1.693293 -0.260330 0.882266 -0.461322 -0.371299 0.887809 -0.452447 -0.373142 1.007886 -6.448686 0.163729 1.004553 -6.451429 0.192959 0.000002 -0.000001 -0.000000 0.635067 -7.342087 -11.674261 57.473665 25.988959 -73.658563 -0.000137 -83.185769 -0.000098 -0.000002 0.000000 -0.000001 0.794858 -0.712113 16.753617 5.515643 9.115023 29.218142 -0.000028 100.618809 0.000013 -0.000001 0.000000 0.000001 -34.657602 4.882042 11.698978 18.985733 3.537189 3.291642 13.589517 3.523297 -12.789836 -3.680376 0.000008 -0.000013 -0.000001 0.000001 0.000001 -7.611537 1.506982 -8.951398 64.322296 -4.941503 -7.964556 -15.674453 -0.875903 -3.990402 -39.780818 -2.000915 6.466341 -0.000000 -0.000000 0.000000 
